<?xml version="1.0" encoding="UTF-8"?>
<!DOCTYPE svg PUBLIC "-//W3C//DTD SVG 1.1//EN" "http://www.w3.org/Graphics/SVG/1.1/DTD/svg11.dtd">
<!-- Creator: CorelDRAW 2019 (64-Bit) -->
<svg xmlns="http://www.w3.org/2000/svg" xml:space="preserve" width="45.8008mm" height="45.753mm" version="1.1" style="shape-rendering:geometricPrecision; text-rendering:geometricPrecision; image-rendering:optimizeQuality; fill-rule:evenodd; clip-rule:evenodd"
viewBox="0 0 3991.3 3987.2"
 xmlns:xlink="http://www.w3.org/1999/xlink">
 <defs>
  <style type="text/css">
   <![CDATA[
    .fil4 {fill:none}
    .fil2 {fill:#FEFEFE}
    .fil3 {fill:#981617}
    .fil1 {fill:#EA0606}
    .fil0 {fill:#FBFBFB}
    .fil6 {fill:#FEFEFE;fill-rule:nonzero}
    .fil5 {fill:#ED3237;fill-rule:nonzero}
   ]]>
  </style>
 </defs>
 <g id="Capa_x0020_1">
  <metadata id="CorelCorpID_0Corel-Layer"/>
  <g id="_2434813096224">
   <path class="fil0" d="M2152.2 1945.9c-25.7,-99.2 71.1,-76.2 234.1,-79.9l639.2 -5.1c122.8,1.4 219.8,-6.7 125.6,151.4 -70.2,117.7 -361.1,117.5 -527.7,114.8 -205.6,-3.3 -425.6,-5.5 -471.2,-181.1zm-650.4 -210.6c95.7,-15.7 460.9,83.4 542.2,116.2l-46.9 23.5 33.2 146.6c-85,35.7 -278.6,-21.8 -353.6,-51 -102.2,-39.8 -203.1,-91.5 -174.8,-235.2zm-293.7 42.5c20.3,-21.4 45,-57.5 91.9,-34.6 28.4,13.9 44.7,48.4 52.6,82.3 -36.5,-51.2 -67.3,-53.6 -144.5,-47.7zm-1025.6 -21.3c-108.5,-48.8 -58.7,-0.4 -103,-37.4 42.4,-39 86.8,13.4 103,37.4zm46.2 -112.4c329.8,-50.5 740.7,-44.6 1055.3,35.2 -63.8,8.5 -79.7,29.3 -138.4,28 -146.7,-3.2 -120.1,-45.8 -143.1,19.9l-22.4 -31.1c-76.9,-60.3 -604.5,6.9 -751.3,-52.1zm291.1 -97.1c135.7,-112.8 227.4,147.3 25.4,31 30.7,-10 4.1,-2.4 38.9,-10.8 -11.5,-9.2 -60.4,-14.1 -64.3,-20.2zm-5.4 -262.1c59.2,-32.6 211.2,-168.7 376.9,-103.3 62.5,24.7 146,266.9 136.7,350.5 -45,15.4 -87.1,30.5 -131.5,45.9 -141.1,-119.5 -371,-94.2 -520.9,-152.8 34.1,-58.3 91.6,-95.6 138.8,-140.3zm2004.9 84.8c34,47.4 71.6,59.1 94.7,110.2 -337.4,-11.1 -782,-3.3 -1137.9,-3.7 -176.3,-0.2 -300.8,-30.4 -320.5,58.4 169.9,89.1 660.2,173.2 893.1,205.8 359.1,50.3 720.4,-5.1 1072.9,14.8 -111.2,64.3 -918.6,36.1 -1088.9,13.4 -178.8,-23.9 -827.1,-138.6 -906.4,-227.5 2,-36.7 2.6,-44.4 33.2,-62.4l-16.8 -25.7c-77.6,-120.8 -60.6,-247 -163.7,-347.1l1163.2 25.8 -75.6 -24.6c-28.1,-3.5 -58.5,-5.6 -85.2,-8.2 -59.4,-5.9 -116.6,-9.8 -174.2,-14.3 -120.6,-9.5 -244.7,-13.6 -366.6,-16.2 -631.1,-13.4 -727.3,-8.2 -1147.8,368.2 -50.8,45.4 -190.3,104.5 -219.5,159 -28.7,53.5 -41,259.3 -35.7,328 16,-51 16.5,-112.2 59.2,-139.7 51.3,-32.9 91.3,12.6 112.9,44.6 36.2,53.6 87.2,224.2 89.4,292 1.6,-137.2 -43.8,-275.2 -94.7,-383.8l361 43.9c134.9,11.2 271.2,20 409.6,30.1l8.4 77 19.6 -73.8 141 9.3 -19.2 135.4c32.4,-63.1 76,-203.5 185.7,-119.3 76.2,58.4 77.3,144.3 126.6,227.1 -0.9,-66.3 -44.4,-150.2 -38.1,-199.2l29.8 -13.8c4.3,-8.3 -35.8,93.9 355.6,210.2 140.7,39.5 316.2,80.1 462.2,105.7 -48.3,-48.5 -89,-65.5 -134.6,-117.9l-12.6 -16.7c126.3,27.1 90.2,84.7 236.4,104.7 268,36.8 619.5,40.8 841.5,-76 -3.7,51.4 -13,56.4 -31.3,93.5 90.4,-58.6 122.2,-82.6 250.2,-119.6l26.1 45.7c2.2,-60 -27.4,-113.3 -41,-166.1 -2.2,2.7 -4.1,6.7 -5.3,8.9l-14.1 26c-15.2,28 -19.7,39 -49.3,56.8 -43.6,26.2 -57.9,20.4 -105.1,3.6 12.5,-206.5 62.7,-199.9 64.2,-279.2 -93.5,-58.2 -172.8,-99 -289.7,-146.3 -87.9,-35.5 -239,-72.9 -310,-114.4 7.3,-37.7 31.5,-34.3 43,-23.1 -19.1,-73.4 -115.8,-67.2 -195.5,-79.6z"/>
   <path class="fil1" d="M1989 542.5c3.1,-34.9 -89.6,-289.2 -110.7,-320.8 -263.4,-25.4 -564.6,62.5 -766.6,153.8 -152.7,69 -431.6,285 -498.9,423.3 32.4,39.3 164.9,114 210.5,144.8 120,81.1 115,56.7 273.7,52.3 -89.4,-156.6 735.8,-509.3 891.9,-453.4z"/>
   <path class="fil0" d="M3.4 1539.4c79.7,-81.9 64.4,-43.9 166.2,-107.6 103.8,-64.9 70.3,-67.9 95,-201.5 152.2,-824 952.3,-1222.3 1786.7,-1134.3 170.2,17.9 323.3,53.5 478,98.9 73.8,21.7 147.8,50.5 217.2,78.5 64.4,25.9 148.6,68.9 207.4,86.8 -183.4,-132.8 -608.4,-273 -883.2,-322.8 -669.6,-121.4 -1390.2,47 -1784.7,576.3 -162.2,217.6 -310.7,566.1 -282.7,925.6z"/>
   <path class="fil0" d="M3847.7 3618.9c-59.3,12.5 -563.1,437.6 -1505.1,228 -396.2,-88.2 -648.9,-220.2 -964.6,-419.3 -198.1,-124.9 -70.4,-74.3 -373.3,-84 40.5,75.2 457.9,314.6 589.8,376.1 600.6,279.9 1364.1,390.6 1973.5,81.5 94.6,-48 230.7,-120.4 279.7,-182.4z"/>
   <path class="fil1" d="M2044.7 229.1l96.5 295.8c305.4,7.6 471.8,46 1038.1,215.9 62.6,-74.9 90.2,-68.3 -207.1,-231.8 -269.2,-125.1 -634.5,-270.1 -927.5,-279.9z"/>
   <path class="fil0" d="M1041 1136.9c82.6,102.9 86.6,278.3 156.3,299.7 46.3,14.2 397.9,19.5 470.6,18.1 -152.2,-91.6 -182.9,-224.1 -263.1,-298.1 -2.1,-1.9 42.1,-18 42,-18.1l-405.7 -1.6z"/>
   <path class="fil1" d="M1759.9 3507.1c140.8,95.4 629.1,250.3 850.2,250.5l0.6 -61.2c-113.7,-37.1 -278.6,-81.3 -412.6,-154.6 -66,-31 -131.1,-60.5 -189.6,-93.8 -31.7,-18.1 -147.3,-93.5 -170.6,-99.4 -18.4,29 -76,122.1 -78.1,158.6z"/>
   <path class="fil0" d="M1324.3 2542.7c-61.3,-7.1 -68.5,-12.1 -105,-39.3 9,-24.2 60.8,-139 80.3,-154.1 28.3,-21.9 22.5,153.1 24.6,193.4zm-133.8 -66.3c-24.7,-34 -39.2,-51 -49.5,-107.1 52.7,-19.8 87.5,-69.4 140.1,-63.5 -0.7,36.9 -64.6,149.8 -90.6,170.6zm-67.1 -281.1c51,17.8 103.3,28.9 133.2,58.1 -18.4,38 -96.8,85.2 -131.7,88.3l-1.5 -146.4zm246.7 96.3c-118.4,41.8 -79.4,-144 -2.4,-73.6 -5.1,2.3 -31.5,10.8 -31.9,11.1 -25.8,16.8 -3.9,-9.3 -18.6,24.4 16.5,26.2 44.6,34.3 44.9,33.7 1.3,-2.3 5.5,2.6 8,4.4zm-235.9 -134.5c5.9,-49.2 25.6,-83.7 47.6,-115.2 21.9,21.3 86.5,121.6 93.8,159.7l-141.4 -44.5zm75.8 -148c33.3,-31.8 40.3,-33.7 91.8,-45.1l2.2 187.2c-47.1,-28.5 -75.9,-94 -94.1,-142.2zm121.5 -15.8c13.6,-75.6 29.7,24.3 22.5,-56.1 -254.1,-62.2 -360.3,453.7 -124.2,610.2 76,50.4 206.6,29.6 225.7,-61.4 -45.2,21.8 -48.6,41 -107,50.8l-2 -201.1c50.8,30.1 19.9,46.5 86.3,96.3 -8.2,-43.6 -24.8,-63.1 -30.9,-94 -14,-70.8 -5.9,-15.9 6.5,-35.7 1.6,-2.5 9.2,-10.5 10.7,-12.3l12 -12.8c-53.5,-67.9 -25.2,-26.4 -1.2,-94.6l-26.7 -6.3c-15.4,-3.7 -9.7,0.4 -21.1,-5.5 2.8,-34.8 7.2,-35.9 11.8,-60.8l-2.5 -46.8c-15.3,34.9 -16.7,56.1 -45.1,84.5 -19,-35.8 -14.4,-103 -14.6,-154.3z"/>
   <path class="fil0" d="M1639.3 2407.2c36.1,29.6 187.9,17.3 250.9,17.3 382.3,-0.2 219.2,-48.6 402.9,-99.9 61.2,-17.1 689.5,-23.6 745.2,-19.4 95.1,7.2 88.6,65.6 163,90.5 46.4,15.5 178.3,26 198.1,-19.6 -65.8,-36.2 -151.4,16.7 -223.9,-36 -68.3,-49.6 -57.9,-78.7 -173,-76.4 -162,3.3 -324.1,7.4 -485.2,10.4 -246.2,4.5 -237.3,-13.9 -427.4,84.3 -125.3,64.8 -359,-6.2 -450.6,48.8z"/>
   <path class="fil0" d="M2088.3 2454.5c-180.1,-59.4 -604,91.3 -471.7,-119.8 109.3,-174.4 289.1,-110.1 520.7,-122 -700.2,-128 -405.2,72.5 -637.5,99 -18.2,-20.2 -36.5,-45.8 -40.3,-76 -6.6,78.3 -3,205.8 23.4,258.6 31.3,8.2 239.4,-6.7 312.5,-7.2 88.6,-0.5 237.2,22.7 292.8,-32.6z"/>
   <path class="fil0" d="M330.3 2016.9l637.6 189.9 2.1 -53.1 -550.4 -174.7c-42,-13.3 -76.9,9.6 -89.4,37.9z"/>
   <path class="fil2" d="M156.3 2383.7l9.5 -150.1c6.3,22.3 12.7,49.4 16.6,72.9 13.3,78.7 -26,77 -26.1,77.2zm-3.4 -302.2l-14.3 -178.2c-35.5,31.2 -9.7,139.7 14.3,178.2zm51 218.1l-18.2 -92.4c38.9,23.8 46.6,39.2 18.2,92.4zm-47.7 -101.9l-18.8 197.3c-20.4,1.5 -36.2,-9.5 -43.6,-44l62.4 -153.4zm-65.7 119.5l-20.8 -75.6 71.9 -56.7 -51.1 132.3zm96.4 -134.5c-9.4,-6.4 -34.3,-4.2 -38,-49 -2.5,-29.9 24.7,-33.6 36.1,-44.9 -24.3,30.7 -24.4,62.1 1.8,94zm-93 -217.6l55 136.2c-39.2,-23.8 -46.1,-34.9 -78.7,-61.7l23.7 -74.5zm77.4 -58.1c7,22.3 20.5,25.1 13.7,71.1 -4.1,28 -14.1,53.4 -17.9,79.7l4.2 -150.8zm-110.7 176.6c21.7,11.1 55.7,44.1 75,60.6 -24.3,24.2 -32.7,21.2 -59.7,45.7l-27.8 19.6c0,128.2 108.6,340.8 168.4,109.4 11.5,-44.3 19.4,-84.1 20.4,-133.7 -60,-29.7 -47.9,-87.4 1,-103.7l-6.6 -59.9 -38.8 54.4c0.2,-1.1 25.7,-100.5 30.4,-106.4 -22.3,-48.5 -28.3,-86.7 -83.4,-97 -35.5,18.8 -41.9,37.3 -58.9,85.1 -14.8,41.6 -22.1,75.9 -20,125.9z"/>
   <path class="fil0" d="M349.8 2347.9l14.7 -60.7c125.9,-34.4 255.2,-1.7 378.3,26.3 128.5,29.3 250.3,39.5 322.1,102.4l-22.5 -107.1c-110.5,-20.2 -209.7,-37.2 -317.9,-61 -159.8,-35.2 -148.8,-49.6 -238.5,-121.3 27.6,61.7 37,48.1 68.7,100.1 -86,1 -168.1,12.7 -240.2,38.6l35.3 82.8z"/>
   <path class="fil0" d="M1792.6 1923.6c-13.1,-23.5 -26.4,-39.6 -35.2,-71.5 24.4,1.4 46.4,-0 38.9,4.5 -17.9,10.6 -15.4,46.3 -3.7,67zm-184.1 -39.1c-15.1,-20.8 -26.3,-42.2 -35.7,-76.8 38.2,10.4 48.6,7.3 45.6,8.5 -12.5,4.7 -22,43.5 -9.9,68.3zm90.1 47.4c-13.7,-8.5 -27.5,-17 -41.2,-25.5 26.3,-7.3 45.4,-22.2 43.5,-59.5 91.1,59.7 67.7,136 234.6,159.4 -13.2,-12.1 -47.3,-26 -53.1,-36.8 -0.8,-1.5 -4.1,-5.3 -4.9,-7.1 -0.6,-1.6 -2.4,-5.3 -2.8,-7.1 -14.3,-63.1 38.6,-7.3 -10.6,-79.8 54.1,5.2 94.6,53.1 132.2,110.3 -27.4,-93.3 -95.6,-134.5 -187.8,-159.5 -60.1,-16.3 -229,-69.5 -282.3,-66.8 38.7,87.1 13.5,164.9 172.4,172.3z"/>
   <path class="fil1" d="M3293 833.7c225.2,174.1 412.4,289.5 608.6,498 12,12.7 -30.5,-36.6 -156.6,-202.7 -33.5,-60.9 -397.4,-393.4 -407.6,-388.3 -5.1,2.6 -39.5,77.7 -44.4,93z"/>
   <path class="fil1" d="M426.3 1207.3c-2.8,15.4 -4.8,28.1 32.6,-8.1 63,-67.7 192.1,-117.5 277.7,-159 -9.1,-32.4 -155.6,-97.3 -194.8,-120.4 -41.8,47 -102.8,219 -115.5,287.5z"/>
   <path class="fil0" d="M787.6 1390.4c-27.7,55.1 -16.8,47.4 133.4,55.2l0.2 6.4 -194 -3.2c22.1,-35.7 28.6,-43.7 60.3,-58.4zm109 115.7c74.4,56.1 38.5,11.6 46.2,-34.6 7.2,-43.4 23,-87.4 -36,-104.4 -97.5,-28 -233.7,15.4 -206,112.7 55.4,-9.7 124.5,-5.6 195.8,-5.1 22.5,40.6 -5.6,9.8 0,31.5z"/>
   <path class="fil3" d="M2765.1 3772.2c0.7,4.9 291.1,-11.2 324.2,-14.7 -20.6,-6.7 -331.2,-37.2 -331.6,-40.3l7.4 54.9z"/>
   <path class="fil2" d="M424.9 2300.7c47.2,28.9 431.4,79.6 511.8,82.5 -65.1,-34 -432.5,-117.8 -511.8,-82.5z"/>
   <path class="fil2" d="M577.1 1269.7l81.3 -29 -38.1 127.6c68.4,-81.2 30.1,-152.6 169.9,-155 153.7,-2.7 96.5,107 179.4,154.5 -35,-155.2 -100.7,-217.8 -286.9,-157.2l-100.5 53.2c-1.1,1 -3.4,4 -5.1,6z"/>
   <path class="fil4" d="M1324.3 2542.7c-2.1,-40.4 3.7,-215.3 -24.6,-193.4 -19.5,15.1 -71.4,129.9 -80.3,154.1 36.5,27.2 43.7,32.2 105,39.3z"/>
   <path class="fil4" d="M1190.4 2476.4c26,-20.8 90,-133.6 90.6,-170.6 -52.6,-5.9 -87.4,43.7 -140.1,63.5 10.3,56.1 24.8,73.1 49.5,107.1z"/>
   <path class="fil1" d="M1482.8 3344.9c21.5,27.7 126.9,90.8 135.3,89.9 33.5,-17.7 49.9,-42.6 47.3,-92l-182.7 2.2z"/>
   <path class="fil0" d="M3306.8 1923.3c-6.9,-28.8 -15,-49.6 5.1,-69.7 24.5,-24.6 9.5,-11.7 42.1,10.3 -7.7,-51.1 -23.5,-72.7 -46.8,-105.2 -26.9,63.6 -58.2,125.7 -62.9,208.5l62.5 -43.8z"/>
   <path class="fil2" d="M3433.4 2309.7c32.3,-179.1 -42.4,-154 -171,-129.1l-78.5 22c-1.8,-2.8 -6,3.8 -9,5.7 191.7,3.4 241.5,-57.1 258.5,101.4z"/>
   <path class="fil2" d="M1428.4 2616.8c80.1,-2 116.2,-19.8 121.1,-78.3 -70.8,15.1 -28.9,8.9 -65,41.1 -10.3,9.2 -44.7,29.6 -56.1,37.2z"/>
   <path class="fil4" d="M1370 2291.5c-2.5,-1.8 -6.7,-6.7 -8,-4.4 -0.3,0.6 -28.4,-7.6 -44.9,-33.7 14.7,-33.6 -7.2,-7.6 18.6,-24.4 0.4,-0.3 26.8,-8.8 31.9,-11.1 -77,-70.4 -116.1,115.4 2.4,73.6z"/>
   <polygon class="fil0" points="982.7,2156.9 980.3,2210.4 1048,2232.2 1052,2191.7 "/>
   <path class="fil2" d="M189.5 2460.1c59.8,-23.3 73.6,-55.1 80.6,-139.9l-74 128.8c-1.4,-2.3 -4.5,7.3 -6.6,11z"/>
   <path class="fil2" d="M3112.3 2575.8c63.8,-12.1 96.7,-32 119,-92.5l-119 92.5z"/>
   <path class="fil4" d="M79.6 1719c44.3,36.9 -5.4,-11.4 103,37.4 -16.2,-23.9 -60.6,-76.4 -103,-37.4z"/>
   <path class="fil5" d="M219.8 3160.9c8.6,-104.1 13.9,-218.6 15.6,-343.7l-112.4 3.3 1.3 -35.5c0.7,-19.1 1.3,-39.9 1.6,-62.4 49.9,0.4 108.1,0.7 174.5,0.7l65.1 -0.3 63.3 0 34.3 -0.3 -1.6 31.3c-0.6,16.9 -1.2,30.8 -1.4,41.7 -0.3,11 -0.4,19.3 -0.4,24.9 -37.6,-2.2 -68.6,-3.3 -93,-3.3l-18.4 0c-2.7,37.8 -4.7,72.7 -6.1,104.8 -2,46 -3.4,90.6 -4.5,133.9 -1.1,43.3 -1.6,78.3 -1.6,105 -28.8,-0.4 -47.3,-0.7 -55.8,-0.7 -7.5,0 -27.7,0.2 -60.5,0.7zm262.2 0c4.4,-55.2 7.6,-101.4 9.6,-138.8 2,-37.2 4.1,-86.8 6,-148.5 2.1,-61.7 3.1,-102.6 3.1,-122.8l-0.3 -28.3c41.5,0.4 91.7,0.7 150.5,0.7 54.2,0 102.1,-0.2 143.6,-0.7l-0.5 10.6c-0.2,2.5 -0.6,11.8 -1.3,27.9l-1.6 34.9c-0.4,7.5 -0.5,15 -0.5,22.8 -33.8,-1.8 -62.2,-2.6 -85.3,-2.6 -25.3,0 -42.4,0.1 -51.2,0.2 -8.9,0.1 -22.7,0.5 -41.5,1.4l-3.1 73.6c20.8,0.7 44.9,1 72.4,1 9.9,0 36.1,-0.8 78.5,-2.3 -1.8,27.4 -3.4,60 -5,97.9 -30.4,-0.4 -53.8,-0.7 -70.2,-0.7 -24.3,0 -51.5,0.7 -81.5,2l-3.3 78.2 30.3 0c9,0 27.5,-0.3 55.6,-1l54.6 -1.6c8.1,-0.2 21.6,-1.1 40.6,-2.6 -2.1,31.8 -3.9,64.6 -5.3,98.6 -42.8,-0.4 -89.8,-0.7 -140.9,-0.7l-115.9 0.3 -37.4 0.3zm667.2 -106.5c-2.1,12.5 -4.6,30 -7.6,52.4 -2.9,22.5 -4.9,39.9 -5.9,52.1 -37.6,7 -71.1,10.5 -100.6,10.5 -28.4,0 -55,-4.4 -79.4,-13 -24.5,-8.7 -47,-22.9 -67.4,-42.6 -20.5,-19.8 -35.1,-43.2 -43.9,-69.9 -8.7,-26.7 -13.1,-56.6 -13.1,-89.8 0,-38.8 5.9,-73.6 17.8,-104.5 11.8,-30.9 28.9,-56.7 51.1,-77.3 22.2,-20.7 46.6,-35.4 73,-44.3 26.5,-8.9 54,-13.4 82.2,-13.4 26,0 58.1,4.2 96.4,12.5l0.5 26.8c0.3,11.7 0.8,24.5 1.4,38.7l1.8 36.4c-20.5,-5.9 -37.2,-9.9 -49.9,-11.9 -12.8,-2.1 -24.6,-3.2 -35.5,-3.2 -23.7,0 -45.1,5.8 -64,17.3 -18.9,11.6 -33.8,28.4 -44.7,50.4 -10.9,22 -16.4,46.4 -16.4,73.2 0,24.3 4.6,45.2 13.7,62.8 9.2,17.4 21.5,30.9 37,40.4 15.6,9.5 34.7,14.2 57.6,14.2 12.4,0 26,-1.2 40.7,-3.6 14.7,-2.4 33,-7.1 55.1,-14.1zm50.9 106.5l5.2 -67.5 10.3 -228.6 2.9 -92.2 0 -50.1c27.3,0.4 51.4,0.7 72.2,0.7 14.9,0 36,-0.2 63,-0.7l113.3 249.4 15.7 36.6c1.8,-35.9 3.6,-86.4 5.5,-151.4 1.9,-64.9 2.8,-109.8 2.8,-134.6 21.7,0.4 39,0.7 52.1,0.7 5.9,0 23.2,-0.2 51.7,-0.7l-6.2 95.7 -11.7 265.9 -1.5 76.8c-22.9,-0.4 -44.3,-0.7 -64.2,-0.7 -16.6,0 -39.4,0.2 -68.6,0.7 -9.2,-21 -15.9,-36.3 -20.3,-45.7l-44.3 -91.6c-14.7,-30 -28.1,-58.7 -40.4,-86.1 -8.1,-17.4 -16.4,-36.5 -25,-57.3l-5.4 152.4 -2.5 128.3c-21.9,-0.4 -38.5,-0.7 -49.9,-0.7 -9.7,0 -27.8,0.2 -54.4,0.7zm444.1 0c10.2,-172 15.3,-304.2 15.3,-397l-0.3 -41.4c30.8,0.4 51.3,0.7 61.6,0.7 4.8,0 23.7,-0.2 56.7,-0.7 -3.2,48.2 -5.8,93.8 -7.7,136.8 -2.5,59.9 -4.3,116 -5.4,168.1 -1.1,52.1 -1.6,96.6 -1.6,133.4l-53.9 -0.7c-10.5,0 -32.1,0.2 -64.7,0.7z"/>
   <path class="fil6" d="M2105.3 3054.4c-2.1,12.5 -4.6,30 -7.6,52.4 -2.9,22.5 -4.9,39.9 -5.9,52.1 -37.6,7 -71.1,10.5 -100.6,10.5 -28.4,0 -55,-4.4 -79.4,-13 -24.5,-8.7 -47,-22.9 -67.4,-42.6 -20.5,-19.8 -35.1,-43.2 -43.9,-69.9 -8.7,-26.7 -13.1,-56.6 -13.1,-89.8 0,-38.8 5.9,-73.6 17.8,-104.5 11.8,-30.9 28.9,-56.7 51.1,-77.3 22.2,-20.7 46.6,-35.4 73,-44.3 26.5,-8.9 54,-13.4 82.2,-13.4 26,0 58.1,4.2 96.4,12.5l0.5 26.8c0.3,11.7 0.8,24.5 1.4,38.7l1.8 36.4c-20.5,-5.9 -37.1,-9.9 -49.9,-11.9 -12.8,-2.1 -24.6,-3.2 -35.4,-3.2 -23.7,0 -45.1,5.8 -64.1,17.3 -18.9,11.6 -33.8,28.4 -44.7,50.4 -10.9,22 -16.4,46.4 -16.4,73.2 0,24.3 4.6,45.2 13.7,62.8 9.2,17.4 21.5,30.9 37,40.4 15.6,9.5 34.7,14.2 57.6,14.2 12.4,0 26,-1.2 40.7,-3.6 14.7,-2.4 33,-7.1 55.1,-14.1zm50.4 106.5c4.4,-55.2 7.6,-101.4 9.6,-138.8 2,-37.2 4.1,-86.8 6,-148.5 2.1,-61.7 3.1,-102.6 3.1,-122.8l-0.3 -28.3c41.5,0.4 91.7,0.7 150.5,0.7 54.2,0 102.1,-0.2 143.6,-0.7l-0.5 10.6c-0.2,2.5 -0.6,11.8 -1.3,27.9l-1.6 34.9c-0.4,7.5 -0.5,15 -0.5,22.8 -33.8,-1.8 -62.3,-2.6 -85.3,-2.6 -25.3,0 -42.4,0.1 -51.2,0.2 -8.9,0.1 -22.7,0.5 -41.5,1.4l-3.1 73.6c20.8,0.7 44.9,1 72.4,1 9.9,0 36.1,-0.8 78.5,-2.3 -1.8,27.4 -3.4,60 -5,97.9 -30.4,-0.4 -53.8,-0.7 -70.2,-0.7 -24.3,0 -51.5,0.7 -81.5,2l-3.3 78.2 30.3 0c9,0 27.5,-0.3 55.6,-1l54.6 -1.6c8.1,-0.2 21.6,-1.1 40.6,-2.6 -2.1,31.8 -3.9,64.6 -5.3,98.6 -42.8,-0.4 -89.8,-0.7 -140.9,-0.7l-115.9 0.3 -37.4 0.3zm356.3 0l5.2 -67.5 10.2 -228.6 2.9 -92.2 0 -50.1c27.3,0.4 51.4,0.7 72.2,0.7 14.9,0 36,-0.2 63,-0.7l113.3 249.4 15.7 36.6c1.8,-35.9 3.6,-86.4 5.5,-151.4 1.9,-64.9 2.8,-109.8 2.8,-134.6 21.7,0.4 39,0.7 52.1,0.7 5.9,0 23.2,-0.2 51.7,-0.7l-6.2 95.7 -11.7 265.9 -1.5 76.8c-22.9,-0.4 -44.3,-0.7 -64.2,-0.7 -16.5,0 -39.4,0.2 -68.6,0.7 -9.2,-21 -15.9,-36.3 -20.3,-45.7l-44.3 -91.6c-14.7,-30 -28.1,-58.7 -40.4,-86.1 -8.1,-17.4 -16.4,-36.5 -25,-57.3l-5.4 152.4 -2.5 128.3c-21.9,-0.4 -38.5,-0.7 -49.9,-0.7 -9.7,0 -27.8,0.2 -54.4,0.7zm522.9 0c8.6,-104.1 13.9,-218.6 15.6,-343.7l-112.4 3.3 1.3 -35.5c0.7,-19.1 1.3,-39.9 1.6,-62.4 49.9,0.4 108.1,0.7 174.5,0.7l65.1 -0.3 63.3 0 34.3 -0.3 -1.6 31.3c-0.6,16.9 -1.2,30.8 -1.4,41.7 -0.3,11 -0.4,19.3 -0.4,24.9 -37.6,-2.2 -68.6,-3.3 -93,-3.3l-18.4 0c-2.7,37.8 -4.7,72.7 -6.1,104.8 -2,46 -3.4,90.6 -4.5,133.9 -1.1,43.3 -1.6,78.3 -1.6,105 -28.8,-0.4 -47.3,-0.7 -55.8,-0.7 -7.5,0 -27.7,0.2 -60.5,0.7zm262.2 0c4.4,-55.2 7.6,-101.4 9.6,-138.8 2,-37.2 4.1,-86.8 6,-148.5 2.1,-61.7 3.1,-102.6 3.1,-122.8l-0.3 -28.3c41.5,0.4 91.7,0.7 150.5,0.7 54.2,0 102.1,-0.2 143.6,-0.7l-0.5 10.6c-0.2,2.5 -0.6,11.8 -1.3,27.9l-1.6 34.9c-0.4,7.5 -0.5,15 -0.5,22.8 -33.8,-1.8 -62.3,-2.6 -85.3,-2.6 -25.3,0 -42.4,0.1 -51.2,0.2 -8.9,0.1 -22.7,0.5 -41.5,1.4l-3.1 73.6c20.8,0.7 44.9,1 72.4,1 9.9,0 36.1,-0.8 78.5,-2.3 -1.8,27.4 -3.4,60 -5,97.9 -30.4,-0.4 -53.8,-0.7 -70.2,-0.7 -24.3,0 -51.5,0.7 -81.5,2l-3.3 78.2 30.3 0c9,0 27.5,-0.3 55.6,-1l54.6 -1.6c8.1,-0.2 21.6,-1.1 40.6,-2.6 -2.1,31.8 -3.9,64.6 -5.3,98.6 -42.8,-0.4 -89.8,-0.7 -140.9,-0.7l-115.9 0.3 -37.4 0.3zm355.8 0c3.4,-37.7 6.1,-71.6 8.1,-101.8 2,-30.2 3.7,-65.3 5.1,-105.1 1.5,-39.9 2.6,-81.8 3.3,-126.1 0.7,-44.3 1.1,-79.4 1.1,-105.5 22,0.7 39.7,1 53.2,1 14,0 31.2,-0.5 51.4,-1.4 20.2,-1 39.9,-1.5 59,-1.5 22.5,0 42.5,1.1 60.1,3.3 13.1,1.4 25.1,4.6 35.9,9.3 10.8,4.7 19.9,10.4 27.3,17.1 7.4,6.8 13.6,14.4 18.4,22.7 4.9,8.3 8.7,18.1 11.5,29.4 2.7,11.2 4.1,23.2 4.1,36 0,14.3 -1.5,27.8 -4.5,40.3 -3,12.5 -7.6,24.3 -14.1,35.3 -6.4,11.1 -14.5,20.6 -24.2,28.6 -9.8,8 -23.5,16.2 -41,24.5l13.7 40.9c3.9,11.3 8,22.9 12.4,34.7l35.3 94.2c1.6,4.1 4.4,12 8.5,24.1 -29,-0.4 -48.6,-0.7 -58.6,-0.7 -12.7,0 -33.4,0.2 -62.2,0.7 -2.8,-11.2 -7.9,-31.9 -15.3,-62.1 -3,-12.6 -5.5,-22.5 -7.7,-29.2 -4.1,-15.2 -10.4,-36.6 -18.6,-64.1l-27.2 -91c9.5,2.2 18.8,3.3 28,3.3 12.8,0 24.4,-2.3 34.8,-7 10.4,-4.7 18.4,-11.9 23.7,-21.8 5.3,-9.8 8,-20.1 8,-31 0,-9.1 -2,-17.2 -6,-24.1 -4,-6.9 -10.4,-12 -19.1,-15.4 -8.7,-3.4 -22.1,-5.2 -40.2,-5.2 -6.1,0 -12.5,0.1 -19.1,0.4 -6.6,0.3 -14.2,0.7 -23,0.9 -2.3,43.8 -4.3,97.4 -6.1,160.5 -1.8,63.1 -3,125.1 -3.5,185.9 -29.3,-0.4 -48.4,-0.7 -57.2,-0.7 -10.2,0 -28.6,0.2 -55.1,0.7z"/>
   <g>
    <path class="fil5" d="M2410.7 3594c2.5,-27.4 4.5,-52.1 5.9,-74 1.4,-22 2.7,-47.5 3.7,-76.4 1.1,-29 1.9,-59.5 2.4,-91.7 0.5,-32.2 0.8,-57.8 0.8,-76.7 16,0.5 28.9,0.7 38.7,0.7 10.2,0 22.7,-0.4 37.4,-1 14.7,-0.7 29,-1.1 42.9,-1.1 16.4,0 30.9,0.8 43.7,2.4 9.6,1 18.3,3.3 26.1,6.8 7.9,3.4 14.5,7.6 19.8,12.4 5.4,4.9 9.9,10.4 13.4,16.5 3.6,6.1 6.4,13.2 8.4,21.4 2,8.1 2.9,16.9 2.9,26.2 0,10.4 -1.1,20.2 -3.3,29.3 -2.2,9.1 -5.6,17.7 -10.3,25.7 -4.6,8.1 -10.5,15 -17.6,20.8 -7.1,5.8 -17.1,11.8 -29.8,17.8l9.9 29.7c2.8,8.2 5.8,16.7 9,25.3l25.7 68.5c1.2,2.9 3.2,8.8 6.2,17.5 -21.1,-0.3 -35.3,-0.5 -42.6,-0.5 -9.2,0 -24.3,0.2 -45.3,0.5 -2,-8.1 -5.8,-23.2 -11.1,-45.2 -2.2,-9.2 -4,-16.3 -5.6,-21.3 -3,-11.1 -7.6,-26.6 -13.6,-46.6l-19.8 -66.2c6.9,1.6 13.7,2.4 20.4,2.4 9.3,0 17.7,-1.7 25.3,-5.1 7.6,-3.4 13.4,-8.7 17.3,-15.9 3.9,-7.1 5.8,-14.6 5.8,-22.6 0,-6.6 -1.4,-12.5 -4.4,-17.5 -2.9,-5 -7.6,-8.8 -13.9,-11.2 -6.4,-2.5 -16.1,-3.7 -29.3,-3.7 -4.5,0 -9.1,0.1 -13.9,0.3 -4.8,0.2 -10.3,0.5 -16.7,0.6 -1.7,31.9 -3.1,70.8 -4.5,116.7 -1.3,45.9 -2.2,91 -2.6,135.2 -21.3,-0.3 -35.2,-0.5 -41.6,-0.5 -7.4,0 -20.8,0.2 -40.1,0.5z"/>
    <path class="fil6" d="M2912.4 3516.5c-1.5,9.1 -3.3,21.8 -5.5,38.1 -2.1,16.3 -3.5,29 -4.3,37.9 -27.4,5.1 -51.7,7.7 -73.2,7.7 -20.7,0 -40,-3.2 -57.8,-9.5 -17.8,-6.3 -34.2,-16.7 -49,-31 -14.9,-14.4 -25.5,-31.4 -31.9,-50.8 -6.4,-19.4 -9.6,-41.2 -9.6,-65.4 0,-28.2 4.3,-53.6 13,-76 8.6,-22.5 21,-41.3 37.2,-56.3 16.2,-15.1 33.9,-25.7 53.1,-32.2 19.3,-6.4 39.3,-9.7 59.8,-9.7 18.9,0 42.3,3 70.2,9.1l0.4 19.5c0.2,8.5 0.6,17.8 1,28.1l1.3 26.5c-14.9,-4.3 -27,-7.2 -36.3,-8.7 -9.3,-1.5 -17.9,-2.3 -25.8,-2.3 -17.2,0 -32.8,4.2 -46.6,12.6 -13.7,8.4 -24.6,20.6 -32.5,36.7 -7.9,16 -11.9,33.8 -11.9,53.2 0,17.7 3.3,32.9 9.9,45.7 6.7,12.7 15.6,22.5 26.9,29.4 11.3,6.9 25.3,10.4 41.9,10.4 9,0 18.9,-0.9 29.6,-2.6 10.7,-1.8 24,-5.2 40.1,-10.3z"/>
   </g>
  </g>
 </g>
</svg>
