<?xml version="1.0" encoding="UTF-8"?>
<!DOCTYPE svg PUBLIC "-//W3C//DTD SVG 1.1//EN" "http://www.w3.org/Graphics/SVG/1.1/DTD/svg11.dtd">
<!-- Creator: CorelDRAW 2019 (64-Bit) -->
<svg xmlns="http://www.w3.org/2000/svg" xml:space="preserve" width="170.38mm" height="173.254mm" version="1.1" style="shape-rendering:geometricPrecision; text-rendering:geometricPrecision; image-rendering:optimizeQuality; fill-rule:evenodd; clip-rule:evenodd"
viewBox="0 0 25908.1 26345.1"
 xmlns:xlink="http://www.w3.org/1999/xlink">
 <defs>
  <style type="text/css">
   <![CDATA[
    .str0 {stroke:#373435;stroke-width:30.4;stroke-miterlimit:22.9256}
    .fil5 {fill:none}
    .fil3 {fill:#FEFEFE}
    .fil0 {fill:#373435}
    .fil4 {fill:#981617}
    .fil2 {fill:#EA0606}
    .fil1 {fill:#FBFBFB}
    .fil7 {fill:#FEFEFE;fill-rule:nonzero}
    .fil6 {fill:#ED3237;fill-rule:nonzero}
   ]]>
  </style>
 </defs>
 <g id="Capa_x0020_1">
  <metadata id="CorelCorpID_0Corel-Layer"/>
  <rect class="fil0 str0" x="15.2" y="15.2" width="25877.7" height="26314.7" rx="2280.9" ry="2280.9"/>
  <g id="_1882519852320">
   <path class="fil1" d="M13811.3 13418.7c-149.6,-576.7 413.4,-442.7 1360.5,-464.3l3714.6 -29.7c713.6,8.1 1277.5,-39.1 729.9,879.6 -407.7,684 -2098.6,682.6 -3066.9,666.9 -1194.6,-19.5 -2473.5,-32.2 -2738,-1052.5zm-3779.7 -1224.1c556.4,-91.4 2678.3,484.5 3150.7,675.3l-272.7 136.4 192.7 851.9c-494.2,207.2 -1618.9,-126.6 -2055.1,-296.5 -594,-231.5 -1180.3,-531.6 -1015.6,-1367.1zm-1706.5 246.9c118.2,-124.2 261.6,-334.2 534.2,-201.3 165.2,80.6 259.5,281.2 305.6,478.4 -212,-297.6 -391.1,-311.4 -839.8,-277.1zm-5959.8 -123.9c-630.4,-283.5 -341.3,-2.5 -598.8,-217.2 246.6,-226.9 504.6,78.1 598.8,217.2zm268.5 -653.1c1916.6,-293.5 4304.5,-259.4 6132.4,204.8 -370.5,49.6 -462.9,170.3 -804.4,162.9 -852.5,-18.4 -697.9,-266.4 -831.8,115.5l-130 -180.7c-446.7,-350.5 -3513.1,40 -4366.2,-302.5zm1691.8 -564.4c788.5,-655.3 1321.3,855.8 147.7,180 178.4,-57.9 23.8,-13.9 226.1,-62.6 -67.1,-53.4 -350.9,-81.9 -373.8,-117.4zm-31.2 -1523.4c344,-189.7 1227.3,-980.3 2190,-600.2 363,143.3 848.2,1551 794.5,2036.7 -261.7,89.4 -506.2,177.2 -764.3,266.9 -819.9,-694.4 -2156,-547.6 -3026.9,-888.2 198.3,-338.7 532.1,-555.5 806.7,-815.2zm11650.8 492.6c197.8,275.7 416,343.7 550.1,640.3 -1960.9,-64.6 -4544.6,-19.4 -6612.9,-21.7 -1024.6,-1.2 -1747.9,-176.9 -1862.5,339.5 987.1,518 3836.6,1006.7 5190.2,1196.2 2086.7,292.1 4186.3,-29.6 6234.7,86 -646.2,373.4 -5338.3,209.7 -6327.9,77.6 -1038.8,-138.7 -4806.6,-805.6 -5267.2,-1321.8 11.9,-213.2 15.1,-257.9 192.8,-362.5l-97.8 -149.6c-451.1,-702.2 -352.3,-1435.6 -951.2,-2017l6759.7 150.2 -439.2 -142.7c-163.2,-20.5 -340.1,-32.4 -495.3,-47.7 -344.9,-34.1 -677.8,-56.8 -1012.3,-83.1 -700.7,-55.1 -1422.2,-79.3 -2130.2,-94.2 -3667.4,-77.6 -4226.5,-47.8 -6670,2139.8 -295,264.1 -1106.1,607.5 -1275.8,924.2 -166.6,310.9 -238.2,1507.1 -207.3,1906.2 92.8,-296.7 95.7,-652.2 344,-811.7 297.9,-191.3 530.9,73.2 656.3,259 210.3,311.5 506.7,1302.9 519.7,1696.8 9.2,-797.5 -254.6,-1599.2 -550.2,-2230.5l2097.7 255.1c783.7,64.9 1575.9,116 2380.2,175.1l49 447.3 113.9 -428.9 819.4 54.2 -111.8 786.8c188.1,-366.7 441.8,-1182.3 1079.2,-693.4 442.7,339.7 449.4,838.3 735.4,1319.9 -5.2,-385.3 -258,-872.6 -221.6,-1157.4l173.1 -80c25.3,-48.5 -208.1,545.7 2066.5,1221.7 817.4,229.3 1837.7,465.2 2685.7,614.1 -280.9,-281.7 -517.1,-380.8 -782.3,-684.8l-73.2 -97.1c734,157.7 524.4,492.2 1373.6,608.7 1557.7,213.7 3600.3,237 4890.1,-441.8 -21.3,298.9 -75.6,328 -181.7,543.3 525.5,-340.3 710.2,-480.1 1453.7,-695l151.7 265.5c12.7,-348.6 -159.1,-658.7 -238.1,-965.5 -12.6,15.6 -23.9,39 -31,51.7l-81.8 150.9c-88.1,162.7 -114.7,226.9 -286.2,330 -253.5,152.3 -336.7,118.3 -610.9,21.1 72.4,-1199.8 364.5,-1161.5 373.1,-1622.6 -543.2,-338 -1004.4,-575.3 -1683.7,-850 -510.7,-206.5 -1388.7,-423.6 -1801.4,-664.9 42.7,-218.9 183.1,-199.5 249.7,-134.5 -111.2,-426.7 -672.9,-390.4 -1136.1,-462.8z"/>
   <path class="fil2" d="M12862.6 5263.1c17.9,-203 -520.7,-1680.7 -643.3,-1864.5 -1530.8,-147.8 -3281.2,363.3 -4454.8,893.6 -887.3,400.9 -2508.2,1656 -2899,2459.7 188.5,228.1 958.3,662.5 1223.3,841.7 697.5,471.5 668.2,329.2 1590.5,304.1 -519.2,-910.2 4276,-2959.6 5183.3,-2634.6z"/>
   <path class="fil1" d="M1324.1 11056.5c463.4,-476 374.4,-255.1 965.8,-625.1 603.2,-377.4 408.7,-394.7 552,-1170.7 884.2,-4788.5 5533.8,-7103 10382.9,-6591.9 989.1,104.3 1879,310.8 2777.8,574.9 428.7,126 858.6,293.7 1262.2,456.2 374.1,150.6 863.3,400.7 1205.5,504.5 -1065.7,-771.4 -3535.8,-1586.5 -5132.3,-1875.9 -3891.3,-705.3 -8078.7,273.3 -10371.3,3348.9 -942.5,1264.3 -1805.5,3289.9 -1642.6,5379z"/>
   <path class="fil1" d="M23664.3 23141c-344.8,72.6 -3272.2,2543.1 -8746.4,1325.1 -2302.7,-512.3 -3770.7,-1279.4 -5605.3,-2436.4 -1150.9,-725.8 -409,-431.9 -2169.5,-488 235.5,437.3 2661.2,1828.4 3427.5,2185.5 3490.5,1626.6 7927.2,2269.6 11468.2,473.8 549.8,-278.8 1340.9,-699.8 1625.4,-1060.1z"/>
   <path class="fil2" d="M13186.4 3441.7l560.7 1718.7c1774.9,44 2741.6,267.6 6032.6,1254.7 363.7,-435.4 524.3,-396.8 -1203.5,-1346.8 -1564.4,-727.2 -3687,-1569.5 -5389.8,-1626.5z"/>
   <path class="fil1" d="M7353.8 8717.7c480.3,598.2 503.4,1617.4 908.1,1741.4 269.1,82.5 2312,113.5 2734.7,105.2 -884.5,-532.1 -1062.6,-1302.2 -1529.2,-1732.3 -12.3,-11.3 244.5,-104.6 243.9,-105.2l-2357.6 -9.2z"/>
   <path class="fil2" d="M11531.3 22491.2c818,554.1 3655.9,1454.6 4940.7,1455.4l3.7 -355.7c-660.8,-215.5 -1618.8,-472.6 -2397.4,-898.6 -383.6,-179.9 -761.8,-351.5 -1101.6,-545.2 -184.3,-105 -856.2,-543.1 -991.7,-577.8 -106.8,168.7 -441.4,709.3 -453.7,921.9z"/>
   <path class="fil1" d="M8999.9 16886.6c-356.2,-41.2 -397.8,-70.3 -610.1,-228.5 52.2,-140.7 353.4,-807.6 466.9,-895.4 164.4,-127.2 130.8,889.4 143.2,1124zm-777.8 -385.1c-143.5,-197.4 -227.7,-296.6 -287.5,-622.4 306.1,-115 508.3,-403.3 814.1,-368.8 -3.9,214.7 -375.3,870.4 -526.7,991.2zm-390.1 -1633.7c296.3,103.3 600.1,168.2 773.9,337.9 -107,221 -562.3,495.1 -765.4,513.1l-8.5 -851zm1433.5 559.4c-688.3,243 -461.5,-836.7 -13.9,-427.6 -29.6,13.3 -182.9,62.8 -185.3,64.4 -150.1,97.6 -22.5,-53.8 -108.2,141.8 96.1,152.1 259,199.4 260.9,196 7.6,-13.5 32.1,15.2 46.5,25.5zm-1371.1 -781.7c34.1,-285.9 148.5,-486.7 276.6,-669.6 127.4,123.8 502.4,707 545.3,928.3l-821.9 -258.7zm440.7 -860c193.3,-185 234.2,-195.7 533.5,-262l13.1 1088.1c-273.6,-165.4 -440.9,-546 -546.6,-826.1zm706.2 -91.9c78.8,-439.4 172.8,141.4 130.9,-325.9 -1476.9,-361.5 -2093.9,2636.6 -722,3545.8 441.9,292.8 1200.5,171.9 1311.3,-357.1 -262.6,126.8 -282.6,238.1 -621.9,295.2l-11.7 -1168.5c295,175.1 115.9,270 501.3,559.9 -47.6,-253.6 -144,-366.8 -179.6,-546.1 -81.7,-411.5 -34.1,-92.5 37.8,-207.8 9.1,-14.6 53.6,-61.3 62.2,-71.6l69.8 -74.3c-310.7,-394.5 -146.3,-153.6 -6.8,-549.9l-155 -36.5c-89.3,-21.4 -56.6,2.5 -122.4,-32.2 16,-202.4 41.5,-208.4 68.4,-353.1l-14.8 -272c-88.8,202.9 -96.8,326 -262.4,490.9 -110.5,-208 -84,-598.8 -85.1,-896.8z"/>
   <path class="fil1" d="M10830.3 16099.2c209.5,172.1 1092,100.7 1457.8,100.5 2221.6,-1.4 1273.9,-282.3 2341.1,-580.8 355.7,-99.5 4006.9,-137 4330.7,-112.5 552.9,41.8 514.8,381.4 947.5,526 269.7,90.2 1036.1,150.9 1151,-114.1 -382.5,-210.3 -879.5,97 -1301.3,-209.2 -397.2,-288.3 -336.7,-457.4 -1005.4,-443.8 -941.3,19.3 -1883.6,43.2 -2819.6,60.4 -1430.5,26.2 -1379.1,-80.9 -2483.5,489.6 -728.3,376.3 -2085.9,-36.3 -2618.4,283.8z"/>
   <path class="fil1" d="M13439.9 16374.1c-1046.3,-345.4 -3510.2,530.5 -2741.3,-696.1 635.4,-1013.6 1679.8,-639.7 3025.7,-708.8 -4069,-744 -2354.8,421.3 -3704.4,575.2 -106,-117.3 -212.3,-266.2 -234.1,-441.9 -38.4,455.1 -17.6,1195.8 136.2,1502.5 181.6,47.4 1391.4,-39.1 1816.1,-41.6 515,-3 1378.4,132 1701.6,-189.4z"/>
   <path class="fil1" d="M3223.5 13831.1l3705.5 1103.5 12.3 -308.4 -3198.5 -1015.3c-243.8,-77.4 -447.2,55.9 -519.3,220.2z"/>
   <path class="fil3" d="M2212.6 15962.7l55 -872.4c36.5,129.3 73.7,287 96.7,423.5 77.2,457.6 -151.3,447.3 -151.7,448.9zm-19.5 -1756.4l-83 -1035.7c-206.4,181.5 -56.5,812.1 83,1035.7zm296.6 1267.4l-105.7 -537.2c226.3,138.2 270.5,228.1 105.7,537.2zm-277.1 -592.4l-109.2 1146.8c-118.4,8.9 -210.3,-55.3 -253.2,-255.6l362.4 -891.2zm-382 694.7l-120.8 -439.1 417.6 -329.4 -296.9 768.6zm560.2 -781.9c-54.8,-37.5 -199.3,-24.6 -220.6,-285 -14.3,-174 143.7,-195.5 210,-261.1 -141.3,178.7 -141.8,360.6 10.6,546.1zm-540.5 -1264.3l319.9 791.4c-227.6,-138.4 -267.7,-203 -457.3,-358.3l137.5 -433.1zm449.9 -337.5c40.9,129.5 119.3,145.9 79.8,413 -24,162.9 -82,310.5 -104,463.3l24.2 -876.3zm-643 1026.5c125.9,64.2 323.6,256.2 436.1,352.4 -141.3,140.5 -189.9,123.4 -347,265.6l-161.6 113.7c0,745.2 631.3,1980.2 978.8,635.5 66.6,-257.6 112.8,-489 118.7,-777.1 -348.9,-172.7 -278.2,-507.9 6,-602.7l-38.1 -347.9 -225.8 316.2c1.4,-6.2 149.6,-584.2 176.7,-618 -129.8,-282.1 -164.3,-504 -484.9,-563.5 -206.2,109 -243.7,217 -342.3,494.4 -86,241.7 -128.6,440.8 -116.4,731.4z"/>
   <path class="fil1" d="M3336.9 15754.7l85.5 -353c731.5,-199.7 1483.2,-9.9 2198.2,152.9 747,170 1454.3,229.7 1872,594.9l-130.7 -622.4c-642.2,-117.5 -1218.8,-216.1 -1847.4,-354.5 -928.7,-204.6 -864.9,-288.1 -1386,-704.8 160.4,358.7 215,279.8 399.3,581.5 -499.8,5.6 -977,74.1 -1395.8,224.5l204.9 481z"/>
   <path class="fil1" d="M11721.5 13289.3c-75.9,-136.8 -153.5,-230.3 -204.7,-415.7 141.6,8.1 269.9,-0.1 225.9,26 -103.8,61.7 -89.4,269 -21.3,389.6zm-1069.6 -227.3c-87.8,-120.7 -152.7,-245.2 -207.5,-446.1 222.3,60.3 282.6,42.5 265,49.1 -72.4,27.3 -128.1,253 -57.5,397zm523.3 275.5c-79.8,-49.5 -159.6,-98.9 -239.5,-148.4 153,-42.2 264.1,-128.8 252.5,-345.8 529.6,346.6 393.6,790.5 1363.2,926.3 -76.4,-70.5 -274.6,-151.2 -308.4,-213.7 -4.6,-8.6 -24.1,-30.8 -28.4,-41.4 -3.7,-9.3 -13.7,-30.7 -16.1,-41 -83,-366.6 224.6,-42.4 -61.4,-463.6 314.4,30.4 550,308.4 768.3,640.9 -159.4,-542 -555.7,-781.5 -1091.6,-926.7 -349,-94.5 -1330.9,-403.6 -1640.8,-387.9 224.7,505.9 78.6,958.3 1002.1,1001.3z"/>
   <path class="fil2" d="M20440.5 6955.5c1308.4,1012 2396.4,1682.2 3536.7,2894.1 69.6,73.9 -177.2,-213 -910.1,-1178 -194.6,-353.7 -2309.1,-2286.3 -2368.7,-2256.5 -29.7,14.8 -229.7,451.6 -257.9,540.3z"/>
   <path class="fil2" d="M3781.7 9126.3c-16.5,89.5 -28.1,163.1 189.6,-46.8 366.3,-393.4 1116.1,-682.9 1613.6,-924.1 -52.6,-188.1 -904.1,-565.3 -1132.1,-699.7 -243.1,272.9 -597.5,1272.9 -671,1670.6z"/>
   <path class="fil1" d="M5881.3 10190.5c-161.2,320.3 -97.5,275.4 775.2,320.5l1.2 37.5 -1127.1 -18.4c128.7,-207.4 166.2,-253.8 350.7,-339.6zm633.3 672.3c432.5,326.1 223.9,67.5 268.5,-201.1 41.8,-252.2 133.5,-508.1 -209.1,-606.6 -566.7,-163 -1358.1,89.5 -1197,654.7 321.7,-56.5 723.3,-32.3 1137.6,-29.8 130.5,235.8 -32.6,56.7 0,182.8z"/>
   <path class="fil4" d="M17372.9 24031.7c3.9,28.7 1691.8,-65 1884.2,-85.3 -120,-39 -1924.8,-216 -1927.3,-233.9l43.1 319.2z"/>
   <path class="fil3" d="M3773.5 15480.7c274.1,168 2507,462.7 2974.4,479.6 -378.1,-197.5 -2513.5,-684.5 -2974.4,-479.6z"/>
   <path class="fil3" d="M4657.7 9489.4l472.6 -168.7 -221.3 741.6c397.6,-471.8 174.9,-886.8 987.1,-901 893.1,-15.6 561,621.9 1042.6,897.7 -203.1,-902 -585.1,-1265.6 -1667.4,-913.7l-583.8 309.1c-6.5,6.1 -19.6,23.5 -29.7,35z"/>
   <path class="fil5" d="M8999.9 16886.6c-12.4,-234.5 21.2,-1251.1 -143.2,-1124 -113.6,87.8 -414.7,754.7 -466.9,895.4 212.3,158.2 253.9,187.4 610.1,228.5z"/>
   <path class="fil5" d="M8222.1 16501.5c151.4,-120.7 522.8,-776.5 526.7,-991.2 -305.8,-34.5 -508.1,253.8 -814.1,368.8 59.8,325.7 144,425 287.5,622.4z"/>
   <path class="fil2" d="M9920.9 21548.4c124.8,161.1 737.6,527.9 786.3,522.4 194.9,-102.6 290.1,-247.6 275.2,-534.9l-1061.5 12.5z"/>
   <path class="fil1" d="M20520.8 13287.3c-40,-167.6 -87,-288.5 29.6,-405.3 142.5,-142.7 55.3,-67.9 244.8,59.7 -44.5,-296.8 -136.6,-422.5 -271.9,-611.5 -156.4,369.3 -337.9,730.3 -365.5,1211.8l363 -254.7z"/>
   <path class="fil3" d="M21256.4 15533.1c187.4,-1040.6 -246.7,-895.2 -993.9,-750.1l-456 127.6c-10.2,-16.2 -35.2,22 -52.5,33.3 1113.9,19.6 1403.5,-331.9 1502.4,589.1z"/>
   <path class="fil3" d="M9604.9 17317.6c465.8,-12 675.2,-115.2 703.8,-454.8 -411.6,87.7 -167.8,51.8 -377.7,238.8 -60,53.4 -259.8,172 -326.1,216.1z"/>
   <path class="fil5" d="M9265.5 15427.2c-14.4,-10.3 -39,-39 -46.5,-25.5 -1.9,3.5 -164.8,-43.9 -260.9,-196 85.7,-195.5 -41.9,-44.1 108.2,-141.8 2.5,-1.6 155.8,-51.2 185.3,-64.4 -447.6,-409.1 -674.4,670.6 13.9,427.6z"/>
   <polygon class="fil1" points="7014.6,14645.1 7001.1,14955.8 7394.3,15082.3 7417.5,14847 "/>
   <path class="fil3" d="M2405.6 16406.8c347.4,-135.3 427.8,-320.5 468.5,-812.8l-430.3 748.7c-7.9,-13.3 -25.9,42.5 -38.2,64.1z"/>
   <path class="fil3" d="M19390.6 17079c370.5,-70 561.9,-185.8 691.7,-537.6l-691.7 537.6z"/>
   <path class="fil5" d="M1766.5 12100.4c257.5,214.7 -31.6,-66.3 598.8,217.2 -94.2,-139.1 -352.2,-444 -598.8,-217.2z"/>
   <path class="fil6" d="M2581.4 20479.5c50.2,-604.7 80.5,-1270.6 90.4,-1997.6l-652.9 19.1 7.3 -206.2c4.2,-110.7 7.3,-231.7 9.4,-362.8 290.1,2.5 628.3,3.8 1014.1,3.8l378.5 -1.9 368 0 199.2 -1.9 -9.4 182.1c-3.7,98 -6.8,178.9 -8.4,242.5 -1.6,63.7 -2.1,112 -2.1,144.5 -218.5,-12.7 -398.9,-19.1 -540.5,-19.1l-107.2 0c-15.7,219.6 -27.2,422.7 -35.6,609.2 -11.5,267.4 -19.9,526.5 -26.1,777.9 -6.3,251.4 -9.4,455.1 -9.4,610.5 -167.3,-2.5 -275,-3.8 -324.1,-3.8 -43.4,0 -161,1.3 -351.3,3.8zm1523.8 0c25.6,-320.8 43.9,-589.5 55.9,-806.5 11.5,-216.4 23.5,-504.2 35,-863.2 12,-358.4 17.8,-596.5 17.8,-713.6l-1.6 -164.2c241,2.5 532.7,3.8 874.6,3.8 315.2,0 593.3,-1.3 834.3,-3.8l-3.1 61.8c-1,14.6 -3.7,68.8 -7.3,162.3l-9.4 203.1c-2.1,43.3 -3.1,87.2 -3.1,132.4 -196.6,-10.2 -361.8,-15.3 -495.6,-15.3 -146.9,0 -246.2,0.6 -297.5,1.3 -51.7,0.6 -131.7,3.2 -241,8.3l-17.8 427.8c120.7,3.8 260.8,5.7 420.8,5.7 57.5,0 209.6,-4.5 456.4,-13.4 -10.5,159.2 -19.9,348.9 -29.3,569.1 -176.7,-2.6 -312.6,-3.8 -407.8,-3.8 -141.1,0 -299,3.8 -473.6,11.5l-19.3 454.5 176.2 0c52.3,0 160,-1.9 323.1,-5.7l317.3 -9.5c47,-1.3 125.5,-6.4 235.8,-15.3 -12,184.6 -22.5,375.6 -30.9,572.9 -248.8,-2.5 -521.7,-3.8 -818.6,-3.8l-673.8 1.9 -217.4 1.9zm3877.2 -618.7c-12,72.5 -26.7,174.4 -43.9,304.3 -16.7,130.5 -28.2,231.7 -34.5,303 -218.5,40.7 -413,61.1 -584.4,61.1 -165.2,0 -319.4,-25.5 -461.6,-75.8 -142.2,-50.3 -272.9,-133 -391.5,-247.6 -119.2,-115.2 -203.9,-250.8 -255.1,-406.1 -50.7,-155.3 -76.3,-329.1 -76.3,-522 0,-225.3 34.5,-427.8 103.5,-607.3 68.5,-179.5 167.8,-329.7 296.9,-449.4 129.1,-120.3 270.8,-205.6 424.5,-257.2 154.2,-51.6 313.7,-77.7 477.8,-77.7 151.1,0 337.7,24.2 560.4,72.6l3.1 156c1.6,68.1 4.7,142.6 8.3,224.7l10.4 211.3c-119.2,-34.4 -215.9,-57.3 -290.1,-69.4 -74.2,-12.1 -142.7,-18.5 -206,-18.5 -137.5,0 -261.9,33.7 -372.2,100.6 -109.8,67.5 -196.6,164.9 -259.8,292.8 -63.3,128 -95.1,269.9 -95.1,425.2 0,141.3 26.7,262.9 79.5,364.8 53.3,101.2 124.9,179.5 214.8,234.9 90.4,55.4 201.8,82.8 334.6,82.8 72.1,0 151.1,-7 236.3,-21 85.2,-14 191.8,-41.4 320.5,-82.1zm295.8 618.7l30.3 -392.1 59.6 -1328.5 16.7 -536 0 -290.9c158.4,2.5 298.5,3.8 419.8,3.8 86.8,0 209.1,-1.3 365.9,-3.8l658.2 1449.5 90.9 212.6c10.5,-208.8 20.9,-502.3 31.9,-879.7 10.9,-376.9 16.2,-637.8 16.2,-782.4 126,2.5 226.9,3.8 302.7,3.8 34.5,0 134.9,-1.3 300.6,-3.8l-36.1 556.4 -68 1545 -8.9 446.2c-133.3,-2.5 -257.2,-3.8 -373.2,-3.8 -96.2,0 -229,1.3 -398.8,3.8 -53.3,-122.2 -92.5,-210.7 -118.2,-265.5l-257.2 -532.2c-85.2,-174.4 -163.1,-341.2 -234.7,-500.4 -47,-101.2 -95.2,-212 -145.3,-332.9l-31.4 885.5 -14.6 745.4c-127,-2.5 -223.7,-3.8 -290.1,-3.8 -56.4,0 -161.5,1.3 -316.3,3.8zm2580.8 0c59,-999.4 88.8,-1767.8 88.8,-2306.9l-1.6 -240.6c178.8,2.5 297.9,3.8 358.1,3.8 27.7,0 137.5,-1.3 329.3,-3.8 -18.8,280.1 -33.5,544.9 -44.9,795.1 -14.6,348.2 -25.1,674.1 -31.4,977.2 -6.3,303 -9.4,561.5 -9.4,775.3l-313.1 -3.8c-61.2,0 -186.6,1.3 -375.8,3.8z"/>
   <path class="fil7" d="M13538.8 19860.8c-12,72.5 -26.7,174.4 -43.9,304.3 -16.7,130.5 -28.3,231.7 -34.5,303 -218.5,40.7 -413,61.1 -584.5,61.1 -165.2,0 -319.4,-25.5 -461.6,-75.8 -142.2,-50.3 -272.9,-133 -391.5,-247.6 -119.2,-115.2 -203.9,-250.8 -255.1,-406.1 -50.7,-155.3 -76.3,-329.1 -76.3,-522 0,-225.3 34.5,-427.8 103.5,-607.3 68.5,-179.5 167.8,-329.7 296.9,-449.4 129.1,-120.3 270.8,-205.6 424.5,-257.2 154.2,-51.6 313.7,-77.7 477.8,-77.7 151.1,0 337.7,24.2 560.4,72.6l3.1 156c1.6,68.1 4.7,142.6 8.3,224.7l10.5 211.3c-119.2,-34.4 -215.9,-57.3 -290.1,-69.4 -74.2,-12.1 -142.7,-18.5 -206,-18.5 -137.5,0 -261.9,33.7 -372.2,100.6 -109.8,67.5 -196.6,164.9 -259.8,292.8 -63.3,128 -95.1,269.9 -95.1,425.2 0,141.3 26.7,262.9 79.5,364.8 53.3,101.2 124.9,179.5 214.8,234.9 90.4,55.4 201.8,82.8 334.6,82.8 72.1,0 151.1,-7 236.3,-21 85.2,-14 191.9,-41.4 320.5,-82.1zm292.7 618.7c25.6,-320.8 43.9,-589.5 55.9,-806.5 11.5,-216.4 23.5,-504.2 35,-863.2 12,-358.4 17.8,-596.5 17.8,-713.6l-1.6 -164.2c241,2.5 532.7,3.8 874.6,3.8 315.2,0 593.3,-1.3 834.3,-3.8l-3.1 61.8c-1,14.6 -3.7,68.8 -7.3,162.3l-9.4 203.1c-2.1,43.3 -3.1,87.2 -3.1,132.4 -196.6,-10.2 -361.8,-15.3 -495.6,-15.3 -146.9,0 -246.2,0.6 -297.4,1.3 -51.8,0.6 -131.7,3.2 -241,8.3l-17.8 427.8c120.7,3.8 260.8,5.7 420.8,5.7 57.5,0 209.6,-4.5 456.4,-13.4 -10.5,159.2 -19.8,348.9 -29.3,569.1 -176.7,-2.6 -312.6,-3.8 -407.8,-3.8 -141.2,0 -299,3.8 -473.6,11.5l-19.3 454.5 176.1 0c52.3,0 160,-1.9 323.1,-5.7l317.3 -9.5c47,-1.3 125.5,-6.4 235.8,-15.3 -12,184.6 -22.5,375.6 -30.9,572.9 -248.8,-2.5 -521.7,-3.8 -818.6,-3.8l-673.8 1.9 -217.5 1.9zm2070.6 0l30.3 -392.1 59.6 -1328.5 16.7 -536 0 -290.9c158.4,2.5 298.5,3.8 419.8,3.8 86.8,0 209.1,-1.3 365.9,-3.8l658.2 1449.5 90.9 212.6c10.5,-208.8 20.9,-502.3 31.9,-879.7 11,-376.9 16.2,-637.8 16.2,-782.4 126,2.5 226.9,3.8 302.7,3.8 34.5,0 134.9,-1.3 300.6,-3.8l-36.1 556.4 -68 1545 -8.9 446.2c-133.3,-2.5 -257.2,-3.8 -373.2,-3.8 -96.2,0 -229,1.3 -398.9,3.8 -53.3,-122.2 -92.5,-210.7 -118.2,-265.5l-257.2 -532.2c-85.2,-174.4 -163.1,-341.2 -234.7,-500.4 -47,-101.2 -95.1,-212 -145.3,-332.9l-31.4 885.5 -14.6 745.4c-127,-2.5 -223.7,-3.8 -290.1,-3.8 -56.5,0 -161.5,1.3 -316.3,3.8zm3038.7 0c50.2,-604.7 80.5,-1270.6 90.4,-1997.6l-652.9 19.1 7.3 -206.2c4.2,-110.7 7.3,-231.7 9.4,-362.8 290.1,2.5 628.3,3.8 1014.1,3.8l378.5 -1.9 368 0 199.2 -1.9 -9.4 182.1c-3.7,98 -6.8,178.9 -8.4,242.5 -1.6,63.7 -2.1,112 -2.1,144.5 -218.5,-12.7 -398.8,-19.1 -540.5,-19.1l-107.2 0c-15.7,219.6 -27.2,422.7 -35.6,609.2 -11.5,267.4 -19.9,526.5 -26.1,777.9 -6.3,251.4 -9.4,455.1 -9.4,610.5 -167.3,-2.5 -275,-3.8 -324.1,-3.8 -43.4,0 -161,1.3 -351.3,3.8zm1523.8 0c25.6,-320.8 43.9,-589.5 55.9,-806.5 11.5,-216.4 23.5,-504.2 35,-863.2 12,-358.4 17.8,-596.5 17.8,-713.6l-1.6 -164.2c241,2.5 532.7,3.8 874.5,3.8 315.2,0 593.3,-1.3 834.3,-3.8l-3.1 61.8c-1,14.6 -3.7,68.8 -7.3,162.3l-9.4 203.1c-2.1,43.3 -3.1,87.2 -3.1,132.4 -196.6,-10.2 -361.8,-15.3 -495.6,-15.3 -146.9,0 -246.2,0.6 -297.5,1.3 -51.7,0.6 -131.7,3.2 -241,8.3l-17.7 427.8c120.7,3.8 260.8,5.7 420.8,5.7 57.5,0 209.6,-4.5 456.4,-13.4 -10.5,159.2 -19.9,348.9 -29.3,569.1 -176.7,-2.6 -312.6,-3.8 -407.8,-3.8 -141.2,0 -299,3.8 -473.6,11.5l-19.4 454.5 176.2 0c52.3,0 160,-1.9 323.1,-5.7l317.3 -9.5c47.1,-1.3 125.5,-6.4 235.8,-15.3 -12,184.6 -22.5,375.6 -30.8,572.9 -248.8,-2.5 -521.7,-3.8 -818.6,-3.8l-673.8 1.9 -217.5 1.9zm2067.5 0c19.9,-219 35.6,-416.3 47.1,-591.4 11.5,-175.7 21.4,-379.4 29.8,-610.5 8.9,-231.7 15.2,-475.5 19.3,-732.7 4.2,-257.2 6.3,-461.5 6.3,-613 127.5,3.8 230.5,5.7 308.9,5.7 81.6,0 181.4,-3.2 298.5,-8.3 117.6,-5.7 231.6,-8.9 342.9,-8.9 130.7,0 246.7,6.4 349.2,19.1 76.3,8.3 145.8,26.7 208.6,54.1 62.7,27.4 115.5,60.5 158.4,99.3 42.9,39.5 79,83.4 107.2,131.8 28.8,48.4 50.7,105 66.9,170.6 15.7,64.9 23.5,135 23.5,209.4 0,83.4 -8.9,161.7 -26.2,234.2 -17.2,72.6 -44.4,141.3 -82.1,205 -37.1,64.3 -84.2,119.7 -140.6,166.1 -57,46.5 -136.4,94.2 -238.4,142.6l79.5 237.5c22.5,65.6 46.5,133 72.1,201.8l204.9 547.4c9.4,23.6 25.6,70 49.1,140 -168.8,-2.5 -282.3,-3.8 -340.3,-3.8 -73.7,0 -193.9,1.3 -361.7,3.8 -16.2,-64.9 -46,-185.2 -88.8,-360.9 -17.3,-73.2 -31.9,-130.5 -44.4,-170 -24.1,-88.5 -60.6,-212.6 -108.2,-372.4l-157.9 -529c55.4,12.7 109.3,19.1 162.6,19.1 74.2,0 141.7,-13.4 202.3,-40.7 60.6,-27.4 106.6,-69.4 138,-126.7 30.9,-56.6 46.5,-116.5 46.5,-180.2 0,-52.8 -11.5,-99.9 -35,-140 -23.5,-40.1 -60.6,-70 -110.8,-89.7 -50.7,-19.7 -128.6,-29.9 -233.7,-29.9 -35.6,0 -72.7,0.6 -110.8,2.6 -38.2,1.9 -82.6,3.8 -133.8,5.1 -13.6,254.6 -25.1,565.9 -35.6,932.6 -10.4,366.7 -17.2,727 -20.4,1080.3 -170.4,-2.5 -281.3,-3.8 -332.5,-3.8 -59.1,0 -166.2,1.3 -320.5,3.8z"/>
   <g>
    <path class="fil6" d="M15313.2 22996.1c14.5,-159.3 25.9,-302.9 34.2,-430.2 8.4,-127.8 15.6,-276 21.7,-444.1 6.5,-168.6 11,-345.9 14.1,-533 3.1,-187.1 4.6,-335.8 4.6,-446 92.8,2.8 167.7,4.2 224.8,4.2 59.3,0 132,-2.3 217.1,-6 85.6,-4.2 168.5,-6.5 249.5,-6.5 95.1,0 179.5,4.6 254,13.9 55.5,6 106.1,19.4 151.7,39.4 45.6,19.9 84.1,44 115.2,72.2 31.2,28.7 57.4,60.7 78,95.9 20.9,35.2 36.9,76.4 48.7,124.1 11.4,47.2 17.1,98.2 17.1,152.4 0,60.7 -6.5,117.6 -19,170.4 -12.5,52.8 -32.3,102.8 -59.7,149.1 -27,46.8 -61.2,87.1 -102.3,120.9 -41.5,33.8 -99.3,68.5 -173.4,103.7l57.8 172.8c16.3,47.7 33.8,96.8 52.5,146.8l149.1 398.3c6.9,17.1 18.7,51 35.8,101.9 -122.8,-1.8 -205.3,-2.8 -247.6,-2.8 -53.6,0 -141.1,0.9 -263.2,2.8 -11.8,-47.2 -33.5,-134.8 -64.7,-262.6 -12.5,-53.3 -23.2,-94.9 -32.3,-123.6 -17.5,-64.4 -44.1,-154.7 -78.7,-270.9l-114.8 -384.9c40.3,9.3 79.5,13.9 118.3,13.9 54,0 103.1,-9.7 147.2,-29.7 44.1,-19.9 77.6,-50.5 100.4,-92.1 22.4,-41.2 33.8,-84.8 33.8,-131.1 0,-38.4 -8.4,-72.7 -25.5,-101.9 -17.1,-29.2 -44.1,-50.9 -80.6,-65.3 -36.9,-14.4 -93.5,-21.8 -170,-21.8 -25.9,0 -52.9,0.5 -80.6,1.9 -27.8,1.4 -60.1,2.8 -97.4,3.7 -9.9,185.2 -18.3,411.7 -25.9,678.5 -7.6,266.8 -12.6,528.9 -14.9,785.9 -124,-1.8 -204.6,-2.8 -241.9,-2.8 -43,0 -120.9,0.9 -233.1,2.8z"/>
    <path class="fil7" d="M18228.6 22546c-8.7,52.8 -19.4,126.9 -31.9,221.4 -12.2,94.9 -20.6,168.6 -25.1,220.4 -159,29.7 -300.4,44.5 -425.2,44.5 -120.2,0 -232.4,-18.5 -335.8,-55.1 -103.4,-36.6 -198.5,-96.8 -284.8,-180.2 -86.7,-83.8 -148.3,-182.5 -185.6,-295.5 -36.9,-113 -55.5,-239.4 -55.5,-379.8 0,-163.9 25.1,-311.2 75.3,-441.8 49.8,-130.6 122.1,-239.9 216,-327 93.9,-87.5 197,-149.6 308.8,-187.1 112.2,-37.5 228.2,-56.5 347.6,-56.5 109.9,0 245.7,17.6 407.7,52.8l2.3 113.5c1.1,49.6 3.4,103.7 6.1,163.5l7.6 153.7c-86.7,-25 -157.1,-41.7 -211.1,-50.5 -54,-8.8 -103.8,-13.4 -149.9,-13.4 -100,0 -190.5,24.6 -270.8,73.2 -79.9,49.1 -143,119.9 -189,213 -46,93.1 -69.2,196.4 -69.2,309.4 0,102.8 19.4,191.3 57.8,265.4 38.8,73.6 90.9,130.6 156.3,170.9 65.8,40.3 146.8,60.2 243.4,60.2 52.5,0 109.9,-5.1 171.9,-15.3 62,-10.2 139.5,-30.1 233.1,-59.7z"/>
   </g>
  </g>
 </g>
</svg>
